<?xml version="1.0" encoding="UTF-8"?>
<svg id="Layer_1" data-name="Layer 1" xmlns="http://www.w3.org/2000/svg" viewBox="0 0 2043.78 463.22">
  <defs>
    <style>
      .cls-1 {
        fill: #fff;
      }
    </style>
  </defs>
  <path class="cls-1" d="M164.2,421.87L26.39,40.12h104.38l82.68,247.59,82.68-247.59h104.38l-137.81,381.75h-98.52Z"/>
  <path class="cls-1" d="M415.63,422.38L554.61,40.63h99.69l138.98,381.75h-107.9l-26.39-81.26h-109.07l-26.39,81.26h-107.9ZM576.31,258.23h56.3l-28.15-92.71-28.15,92.71Z"/>
  <path class="cls-1" d="M874.18,421.87V40.12h162.44c27.36,0,50.82,4.64,70.37,13.91,19.55,9.27,34.5,22.09,44.86,38.45,10.35,16.36,15.54,35.09,15.54,56.17,0,22.18-5.86,42.63-17.59,61.35-11.73,18.73-28.54,32.82-50.43,42.27l113.18,169.61h-112l-104.97-157.06h-20.52v157.06h-100.86ZM975.04,184.09h49.84c13.68,0,24.82-2.54,33.43-7.64,8.59-5.09,12.9-14.36,12.9-27.81s-4.31-22.72-12.9-27.81c-8.6-5.09-19.75-7.64-33.43-7.64h-49.84v70.9Z"/>
  <path class="cls-1" d="M1288.03,421.87V40.12h279.13v82.89h-174.75v53.99h137.22v82.89h-137.22v79.08h180.61v82.89h-284.99Z"/>
  <path class="cls-1" d="M1685.93,421.87V40.12h101.45l135.46,227.96V40.12h93.83v381.75h-101.45l-135.46-227.96v227.96h-93.83Z"/>
</svg>